REM MD5 0542c7e2ed28db4aaffc1534e8760d78
FILE "Alien Resurrection (USA).bin" BINARY
  TRACK 01 MODE2/2352
    INDEX 01 00:00:00
  TRACK 02 AUDIO
    INDEX 00 25:30:61
    INDEX 01 25:32:61
  TRACK 03 AUDIO
    INDEX 00 26:57:38
    INDEX 01 26:59:38
  TRACK 04 AUDIO
    INDEX 00 28:42:48
    INDEX 01 28:44:48
REM LEADOUT 31:44:48
